<?xml version="1.0" standalone="no"?>
<!DOCTYPE svg PUBLIC "-//W3C//DTD SVG 20010904//EN"
 "http://www.w3.org/TR/2001/REC-SVG-20010904/DTD/svg10.dtd">
<svg version="1.0" xmlns="http://www.w3.org/2000/svg"
 width="200.000000pt" height="200.000000pt" viewBox="0 0 200.000000 200.000000"
 preserveAspectRatio="xMidYMid meet">

<g transform="translate(0.000000,200.000000) scale(0.100000,-0.100000)"
fill="#000000" stroke="none">
<path d="M1774 1774 c-16 -13 -16 -15 -1 -10 16 5 17 -3 13 -107 -2 -62 -2
-94 1 -72 14 133 18 205 13 205 -3 0 -15 -7 -26 -16z"/>
<path d="M1720 1750 c-8 -5 -10 -10 -5 -10 6 0 17 5 25 10 8 5 11 10 5 10 -5
0 -17 -5 -25 -10z"/>
<path d="M1573 1680 c-13 -5 -23 -12 -23 -15 0 -9 16 -5 36 10 22 16 19 18
-13 5z"/>
<path d="M1545 1600 c10 -11 20 -20 23 -20 3 0 -3 9 -13 20 -10 11 -20 20 -23
20 -3 0 3 -9 13 -20z"/>
<path d="M1620 1516 c0 -2 7 -9 15 -16 13 -11 14 -10 9 4 -5 14 -24 23 -24 12z"/>
<path d="M1772 1470 c0 -19 2 -27 5 -17 2 9 2 25 0 35 -3 9 -5 1 -5 -18z"/>
<path d="M824 1023 c-23 -31 -24 -34 -5 -18 22 19 46 55 38 55 -3 0 -17 -17
-33 -37z"/>
<path d="M981 1047 c-1 -12 41 -108 45 -104 3 2 -7 28 -20 58 -14 30 -25 50
-25 46z"/>
<path d="M766 941 c-3 -4 -9 -166 -12 -360 l-7 -351 289 2 c202 1 252 4 167 8
l-122 5 -26 35 c-34 46 -53 71 -116 155 -29 39 -52 75 -52 82 0 7 -4 10 -8 7
-4 -2 -13 5 -20 18 -6 12 -20 31 -30 41 -10 11 -16 25 -12 30 3 6 2 7 -4 4 -5
-3 -17 9 -27 27 -14 27 -17 54 -14 169 2 75 2 137 1 137 -1 0 -4 -4 -7 -9z"/>
<path d="M1051 878 c-1 -12 31 -89 35 -85 3 2 -4 24 -15 48 -11 24 -20 41 -20
37z"/>
<path d="M1117 705 c9 -19 18 -33 21 -31 4 5 -26 66 -33 66 -3 0 3 -16 12 -35z"/>
<path d="M1171 575 c0 -5 6 -21 14 -35 8 -14 14 -20 14 -15 0 6 -6 21 -14 35
-8 14 -14 21 -14 15z"/>
<path d="M1225 430 c9 -30 34 -80 40 -80 4 0 -35 92 -43 100 -2 3 -1 -6 3 -20z"/>
<path d="M1290 271 c0 -6 4 -13 10 -16 6 -3 7 1 4 9 -7 18 -14 21 -14 7z"/>
</g>
</svg>
