<?xml version="1.0" standalone="no"?>
<!DOCTYPE svg PUBLIC "-//W3C//DTD SVG 20010904//EN"
 "http://www.w3.org/TR/2001/REC-SVG-20010904/DTD/svg10.dtd">
<svg version="1.0" xmlns="http://www.w3.org/2000/svg"
 width="200.000000pt" height="200.000000pt" viewBox="0 0 200.000000 200.000000"
 preserveAspectRatio="xMidYMid meet">

<g transform="translate(0.000000,200.000000) scale(0.100000,-0.100000)"
fill="#000000" stroke="none">
<path d="M1519 1733 c-13 -17 -13 -17 6 -3 11 8 22 16 24 17 2 2 0 3 -6 3 -6
0 -17 -8 -24 -17z"/>
<path d="M1563 1700 c0 -25 2 -35 4 -22 2 12 2 32 0 45 -2 12 -4 2 -4 -23z"/>
<path d="M1460 1710 c-9 -6 -10 -10 -3 -10 6 0 15 5 18 10 8 12 4 12 -15 0z"/>
<path d="M1380 1670 c-13 -8 -12 -12 4 -27 16 -14 17 -15 7 -1 -10 14 -9 18 6
27 10 6 14 10 8 11 -5 0 -17 -5 -25 -10z"/>
<path d="M1410 1616 c0 -2 8 -10 18 -17 15 -13 16 -12 3 4 -13 16 -21 21 -21
13z"/>
<path d="M1465 1550 c10 -11 20 -20 23 -20 3 0 -3 9 -13 20 -10 11 -20 20 -23
20 -3 0 3 -9 13 -20z"/>
<path d="M1535 1481 c-3 -5 -1 -12 5 -16 5 -3 10 1 10 9 0 18 -6 21 -15 7z"/>
<path d="M960 1281 c0 -6 4 -13 10 -16 6 -3 7 1 4 9 -7 18 -14 21 -14 7z"/>
<path d="M889 1233 c-13 -16 -12 -17 4 -4 9 7 17 15 17 17 0 8 -8 3 -21 -13z"/>
<path d="M991 1210 c14 -31 19 -36 19 -24 0 6 -7 19 -16 30 -14 18 -14 18 -3
-6z"/>
<path d="M828 1006 c-5 -77 -8 -190 -8 -253 l0 -113 120 0 c73 0 120 4 120 10
0 8 -108 157 -195 269 -16 20 -21 46 -25 126 l-5 100 -7 -139z"/>
<path d="M1031 1110 c14 -31 19 -36 19 -24 0 6 -7 19 -16 30 -14 18 -14 18 -3
-6z"/>
<path d="M1070 1015 c0 -5 5 -17 10 -25 5 -8 10 -10 10 -5 0 6 -5 17 -10 25
-5 8 -10 11 -10 5z"/>
<path d="M1110 915 c0 -5 5 -17 10 -25 5 -8 10 -10 10 -5 0 6 -5 17 -10 25 -5
8 -10 11 -10 5z"/>
<path d="M1150 815 c0 -5 5 -17 10 -25 5 -8 10 -10 10 -5 0 6 -5 17 -10 25 -5
8 -10 11 -10 5z"/>
<path d="M1190 715 c0 -5 5 -17 10 -25 5 -8 10 -10 10 -5 0 6 -5 17 -10 25 -5
8 -10 11 -10 5z"/>
<path d="M118 594 c-38 -20 -58 -63 -58 -125 0 -45 4 -55 34 -85 23 -23 43
-34 63 -34 19 0 38 -9 53 -25 18 -19 34 -25 67 -25 49 0 52 5 22 36 l-22 23
27 31 c21 26 26 42 26 89 0 63 -15 93 -60 116 -37 19 -117 19 -152 -1z m114
-61 c20 -18 24 -73 8 -104 -7 -13 -21 -19 -45 -19 -39 0 -55 20 -55 71 0 59
52 89 92 52z"/>
<path d="M350 520 c0 -49 5 -101 12 -115 16 -36 57 -55 118 -55 104 0 134 42
128 180 l-3 75 -40 0 -40 0 -5 -95 -5 -95 -30 -3 c-44 -5 -55 18 -55 115 l0
83 -40 0 -40 0 0 -90z"/>
<path d="M637 604 c-4 -4 -7 -63 -7 -131 l0 -123 115 0 115 0 0 30 0 30 -70 0
c-63 0 -70 2 -70 20 0 18 7 20 60 20 l60 0 0 30 0 30 -60 0 c-53 0 -60 2 -60
20 0 18 7 20 71 20 l70 0 -3 28 -3 27 -106 3 c-58 1 -108 -1 -112 -4z"/>
<path d="M908 595 c-50 -28 -50 -103 0 -129 15 -8 44 -17 65 -21 33 -6 55 -21
46 -29 -19 -17 -51 -14 -69 4 -28 28 -86 25 -82 -5 2 -11 14 -30 28 -42 20
-19 37 -23 88 -23 82 0 116 23 116 79 0 48 -19 65 -89 83 -30 8 -56 19 -58 25
-6 17 34 22 57 6 16 -11 37 -13 95 -8 l75 7 0 -96 0 -96 45 0 45 0 0 95 0 95
40 0 c39 0 40 1 40 35 l0 35 -125 0 -125 0 0 -31 0 -30 -23 27 c-20 23 -33 28
-83 31 -40 2 -68 -2 -86 -12z"/>
<path d="M1360 481 l0 -131 45 0 46 0 -3 128 -3 127 -42 3 -43 3 0 -130z"/>
<path d="M1480 480 l0 -130 40 0 40 0 0 44 0 45 53 3 c48 3 52 5 55 31 3 27 2
27 -52 27 -53 0 -56 1 -56 25 0 24 3 25 59 25 48 0 60 3 63 17 2 11 17 -5 46
-48 36 -56 42 -73 42 -117 l0 -52 45 0 45 0 0 53 c0 47 6 63 45 123 24 38 45
72 45 77 0 4 -18 7 -40 7 -37 0 -42 -4 -68 -45 l-28 -45 -24 45 -25 45 -142 0
-143 0 0 -130z"/>
</g>
</svg>
